<svg width="68" height="65" viewBox="0 0 68 65" fill="none" xmlns="http://www.w3.org/2000/svg">
<rect x="-0.316987" y="41.6003" width="49" height="49" rx="4.5" transform="rotate(-60 -0.316987 41.6003)" stroke="#626262"/>
<path d="M46.4116 21.9083C46.0772 20.7743 45.383 19.7798 44.4339 19.0748C43.4848 18.3698 42.3322 17.9926 41.1499 18C39.7797 18.0012 38.4595 18.5149 37.4488 19.4402C36.4382 20.3654 35.8102 21.6352 35.6883 23H32.3133C32.1897 21.6338 31.5596 20.3632 30.5468 19.438C29.534 18.5128 28.2117 17.9998 26.8399 18C25.6592 17.9942 24.5086 18.3722 23.5614 19.0771C22.6142 19.7821 21.9217 20.7757 21.5883 21.9083L17.4033 35.855C17.3574 36.0103 17.3338 36.1714 17.3333 36.3333V38C17.3359 40.2096 18.215 42.3279 19.7775 43.8902C21.3401 45.4525 23.4586 46.3311 25.6683 46.3333C27.2877 46.3306 28.8713 45.8563 30.2257 44.9683C31.5801 44.0804 32.6465 42.8173 33.2949 41.3333H34.7049C35.3533 42.8173 36.4198 44.0804 37.7741 44.9683C39.1285 45.8563 40.7121 46.3306 42.3316 46.3333C44.5415 46.3311 46.6602 45.4523 48.2229 43.8896C49.7855 42.327 50.6644 40.2082 50.6666 37.9983V36.3333C50.6666 36.17 50.6416 36.01 50.5966 35.855L46.4116 21.9083ZM25.6683 43C24.3426 42.9982 23.0716 42.4709 22.1341 41.5337C21.1965 40.5964 20.6688 39.3257 20.6666 38C20.6666 37.8733 20.6949 37.755 20.7033 37.63C20.7944 36.3746 21.3565 35.2001 22.2769 34.3415C23.1972 33.483 24.4079 33.0038 25.6666 33C26.9927 33 28.2644 33.5268 29.2021 34.4645C30.1398 35.4021 30.6666 36.6739 30.6666 38V38.015C30.6609 39.3376 30.132 40.6043 29.1955 41.5383C28.259 42.4723 26.9909 42.9978 25.6683 43ZM42.3316 43C41.0089 42.9978 39.7409 42.4723 38.8044 41.5383C37.8678 40.6043 37.339 39.3376 37.3333 38.015V38C37.3331 37.3434 37.4624 36.6932 37.7135 36.0865C37.9647 35.4798 38.3329 34.9286 38.7971 34.4642C39.7347 33.5264 41.0063 32.9994 42.3324 32.9992C43.6585 32.9989 44.9304 33.5255 45.8682 34.463C46.806 35.4006 47.333 36.6722 47.3333 37.9983C47.3315 39.3243 46.804 40.5955 45.8663 41.5331C44.9287 42.4707 43.6576 42.9982 42.3316 43Z" fill="#6E9320"/>
</svg>
