<svg width="69" height="70" viewBox="0 0 69 70" fill="none" xmlns="http://www.w3.org/2000/svg">
<rect x="0.683013" y="44.1002" width="49" height="49" rx="4.5" transform="rotate(-60 0.683013 44.1002)" stroke="#626262"/>
<path d="M52.5714 34.0714H51.0821C50.7393 30.0347 48.98 26.2493 46.1154 23.3846C43.2507 20.52 39.4653 18.7607 35.4286 18.4179V16.9286C35.4286 16.5497 35.2781 16.1863 35.0102 15.9184C34.7422 15.6505 34.3789 15.5 34 15.5C33.6211 15.5 33.2578 15.6505 32.9898 15.9184C32.7219 16.1863 32.5714 16.5497 32.5714 16.9286V18.4179C28.5347 18.7607 24.7493 20.52 21.8846 23.3846C19.02 26.2493 17.2607 30.0347 16.9179 34.0714H15.4286C15.0497 34.0714 14.6863 34.2219 14.4184 34.4898C14.1505 34.7578 14 35.1211 14 35.5C14 35.8789 14.1505 36.2422 14.4184 36.5102C14.6863 36.7781 15.0497 36.9286 15.4286 36.9286H16.9179C17.2607 40.9653 19.02 44.7507 21.8846 47.6154C24.7493 50.48 28.5347 52.2393 32.5714 52.5821V54.0714C32.5714 54.4503 32.7219 54.8137 32.9898 55.0816C33.2578 55.3495 33.6211 55.5 34 55.5C34.3789 55.5 34.7422 55.3495 35.0102 55.0816C35.2781 54.8137 35.4286 54.4503 35.4286 54.0714V52.5821C39.4653 52.2393 43.2507 50.48 46.1154 47.6154C48.98 44.7507 50.7393 40.9653 51.0821 36.9286H52.5714C52.9503 36.9286 53.3137 36.7781 53.5816 36.5102C53.8495 36.2422 54 35.8789 54 35.5C54 35.1211 53.8495 34.7578 53.5816 34.4898C53.3137 34.2219 52.9503 34.0714 52.5714 34.0714ZM46.8571 36.9286H48.2143C47.8799 40.2056 46.4254 43.267 44.0962 45.5962C41.767 47.9254 38.7056 49.3799 35.4286 49.7143V48.3571C35.4286 47.9783 35.2781 47.6149 35.0102 47.347C34.7422 47.0791 34.3789 46.9286 34 46.9286C33.6211 46.9286 33.2578 47.0791 32.9898 47.347C32.7219 47.6149 32.5714 47.9783 32.5714 48.3571V49.7143C29.2944 49.3799 26.233 47.9254 23.9038 45.5962C21.5746 43.267 20.1201 40.2056 19.7857 36.9286H21.1429C21.5217 36.9286 21.8851 36.7781 22.153 36.5102C22.4209 36.2422 22.5714 35.8789 22.5714 35.5C22.5714 35.1211 22.4209 34.7578 22.153 34.4898C21.8851 34.2219 21.5217 34.0714 21.1429 34.0714H19.7857C20.1201 30.7944 21.5746 27.733 23.9038 25.4038C26.233 23.0746 29.2944 21.6201 32.5714 21.2857V22.6429C32.5714 23.0217 32.7219 23.3851 32.9898 23.653C33.2578 23.9209 33.6211 24.0714 34 24.0714C34.3789 24.0714 34.7422 23.9209 35.0102 23.653C35.2781 23.3851 35.4286 23.0217 35.4286 22.6429V21.2857C38.7056 21.6201 41.767 23.0746 44.0962 25.4038C46.4254 27.733 47.8799 30.7944 48.2143 34.0714H46.8571C46.4783 34.0714 46.1149 34.2219 45.847 34.4898C45.5791 34.7578 45.4286 35.1211 45.4286 35.5C45.4286 35.8789 45.5791 36.2422 45.847 36.5102C46.1149 36.7781 46.4783 36.9286 46.8571 36.9286ZM41.1429 35.5C41.1429 36.9127 40.7239 38.2937 39.9391 39.4684C39.1542 40.643 38.0386 41.5585 36.7335 42.0991C35.4283 42.6398 33.9921 42.7812 32.6065 42.5056C31.2209 42.23 29.9482 41.5497 28.9492 40.5508C27.9503 39.5518 27.27 38.2791 26.9944 36.8935C26.7188 35.5079 26.8602 34.0717 27.4009 32.7665C27.9415 31.4614 28.857 30.3458 30.0316 29.5609C31.2063 28.7761 32.5873 28.3571 34 28.3571C35.8944 28.3571 37.7112 29.1097 39.0508 30.4492C40.3903 31.7888 41.1429 33.6056 41.1429 35.5Z" fill="#6E9320"/>
</svg>
