<svg width="66" height="65" viewBox="0 0 66 65" fill="none" xmlns="http://www.w3.org/2000/svg">
<path d="M32.2969 14.4575C25.9715 14.4575 20.8223 19.5372 20.8223 25.8345C20.8223 29.3993 22.0534 31.0688 23.4248 33.2442C24.3394 34.695 25.2816 36.3622 25.81 38.757H38.708C39.2337 36.3049 40.1854 34.607 41.1079 33.1417C42.4813 30.9605 43.7105 29.3205 43.7105 25.8345C43.7105 19.533 38.6225 14.4577 32.297 14.4577L32.2969 14.4575ZM24.5016 24.4502L26.3154 26.0469L29.4062 28.7667L31.8428 26.1006L32.3725 25.5196L32.9121 26.0933L35.3145 28.6495L38.4371 26.0347L40.2095 24.5503L39.6114 26.7842L36.8086 37.2406L35.3974 36.8624L37.6021 28.6397L35.7246 30.212L35.1949 30.6538L34.7236 30.1507L32.3872 27.6679L29.9995 30.2803L29.5161 30.8099L28.979 30.3363L27.1626 28.7397L29.3454 36.8817L27.9341 37.2577L25.1266 26.784L24.5016 24.45V24.4502ZM26.2666 40.2168V43.4297L37.6094 40.2168H26.2666H26.2666ZM38.2661 41.5499L26.2666 44.9506V47.2505L38.2661 43.8521V41.5497V41.5499ZM38.2661 45.3682L28.9352 48.0122H38.2661V45.3682ZM27.9097 49.4721V51.0763H36.7598V49.4724H27.9098L27.9097 49.4721Z" fill="#6E9320"/>
<rect x="-0.316987" y="41.6003" width="49" height="49" rx="4.5" transform="rotate(-60 -0.316987 41.6003)" stroke="#626262"/>
</svg>
