<?xml version="1.0" encoding="UTF-8" standalone="no"?><!DOCTYPE svg PUBLIC "-//W3C//DTD SVG 1.1//EN" "http://www.w3.org/Graphics/SVG/1.1/DTD/svg11.dtd"><svg width="100%" height="100%" viewBox="0 0 1080 1080" version="1.1" xmlns="http://www.w3.org/2000/svg" xmlns:xlink="http://www.w3.org/1999/xlink" xml:space="preserve" xmlns:serif="http://www.serif.com/" style="fill-rule:evenodd;clip-rule:evenodd;stroke-linejoin:round;stroke-miterlimit:2;"><rect id="Avatar-Colored" serif:id="Avatar Colored" x="0" y="0" width="1080" height="1080" style="fill:none;"/><g id="Avatar-Colored1" serif:id="Avatar Colored"><path id="path60" d="M491.715,569.67c-13.886,1.8 -53.701,11.789 -57.814,67.404c-5.847,79.049 98.569,130.594 137.805,40.894c-0.445,-22.15 -4.912,-47.288 -15.898,-67.482c-9.249,-17.001 -32.264,-34.546 -64.093,-40.816Z" style="fill:#6e9320;fill-rule:nonzero;"/><path id="path63" d="M442.958,406.294c-2.491,-0.024 -4.632,0.008 -5.269,0.106c-1.148,0.133 -2.405,0.428 -3.471,0.662c-0.191,0.58 -0.273,1.65 -0.353,4.163c-0.231,7.225 0.116,11.461 1.467,17.963c1.239,5.986 1.947,8.145 4.079,12.551c9.828,20.305 33.133,30.209 66.938,28.445c2.358,-0.123 5.952,-0.412 7.985,-0.642l3.696,-0.419l0.99,1.702c5.4,9.287 10.15,18.033 14.006,25.695c0.488,-2.934 1.058,-5.882 1.739,-8.834c-0.674,-1.197 -1.429,-2.495 -1.975,-3.523c-1.325,-2.495 -3.275,-6.508 -4.332,-8.917c-1.8,-4.101 -2.038,-4.861 -3.756,-11.943c-2.051,-8.454 -2.978,-11.452 -5.036,-16.284c-5.019,-11.789 -11.958,-19.77 -23.494,-27.024c-12.45,-7.828 -27.828,-12.345 -45.867,-13.471c-1.997,-0.125 -4.843,-0.205 -7.347,-0.23Z" style="fill:#6e9320;fill-rule:nonzero;"/><path id="path10" d="M468.098,402.999c-5.223,-0.092 -10.747,0.135 -16.551,0.687c-4.43,0.421 -11.359,1.474 -14.842,2.192l0,-0c-0.886,0.186 -1.446,0.333 -1.788,0.455c0.462,-0.033 0.927,-0.066 1.404,-0.097c0.003,-0 0.008,-0 0.012,-0c0,-0 0,-0 0.001,-0c0.728,-0.048 1.479,-0.093 2.277,-0.132l-0.004,0.007c0.946,-0.098 2.339,-0.193 3.859,-0.25c25.741,-0.971 48.097,5.343 63.39,17.904c9.763,8.018 16.008,18.593 20.423,34.582c0.725,2.628 1.36,4.805 1.411,4.838c0.163,0.107 0.389,-8.467 0.291,-11.056c-0.475,-12.438 -3.898,-22.388 -10.456,-30.394c-9.785,-11.945 -26.79,-18.335 -49.426,-18.734l-0.001,-0.002Z" style="fill:#6e9320;fill-rule:nonzero;"/><path id="path8" d="M557.142,515.383c78.537,-1.06 135.71,122.289 20.777,153.48c-0.919,-24.874 -6.755,-46.923 -15.445,-62.06c-11.85,-20.643 -35.497,-34.606 -65.229,-42.404c2.02,-11.163 10.298,-39.256 43.815,-47.049c5.427,-1.262 10.803,-1.896 16.082,-1.967Zm23.347,23.37c-0.373,-0.469 -0.747,-0.729 -0.747,-0.729c-0,0 0.351,0.254 0.747,0.729Zm0,0c0.868,1.089 1.737,3.305 -2.057,6.021c-5.844,4.184 -29.873,9.189 -41.698,5.413c-16.636,-5.311 -15.686,-13.688 -12.661,-15.549c-3.3,1.271 -12.64,5.906 -1.575,14.546c13.193,10.301 42.831,6.325 53.132,-0.181c7.847,-4.955 6.125,-8.731 4.859,-10.25Zm-56.416,-4.115c0.635,-0.244 1.046,-0.364 1.046,-0.364c-0.36,0.036 -0.715,0.161 -1.046,0.364Z" style="fill:#6e9320;fill-rule:nonzero;"/><path id="path9" d="M541.752,485.299c7.154,-20.304 21.489,-42.218 36.668,-54.143c9.082,-7.135 25.814,-14.954 32.239,-17.159c3.058,-1.05 4.157,-1.374 3.713,-2.943c-2.413,-8.521 -4.647,-18.949 -4.164,-19.432c0.866,-0.866 60.791,22.35 60.826,23.564c0.033,1.168 -41.989,48.989 -43.188,49.147c-0.421,0.056 -1.84,-4.601 -3.152,-10.349c-1.818,-7.958 -2.909,-10.449 -4.577,-10.449c-5.371,-0 -19.32,8.686 -28.163,17.539c-10.507,10.517 -15.546,19.16 -20.989,34.055c-5.006,12.917 -4.824,27.747 -5.949,41.504c-1.789,4.364 -3.867,6.815 -16.952,7.2c-2.27,0.067 -10.295,-1.007 -12.845,-4.772c-1.567,-18.268 0.991,-36.153 6.533,-53.762Z" style="fill:#8e0000;fill-rule:nonzero;"/></g></svg>