<?xml version="1.0" encoding="UTF-8" standalone="no"?><!DOCTYPE svg PUBLIC "-//W3C//DTD SVG 1.1//EN" "http://www.w3.org/Graphics/SVG/1.1/DTD/svg11.dtd"><svg width="100%" height="100%" viewBox="0 0 1080 1080" version="1.1" xmlns="http://www.w3.org/2000/svg" xmlns:xlink="http://www.w3.org/1999/xlink" xml:space="preserve" xmlns:serif="http://www.serif.com/" style="fill-rule:evenodd;clip-rule:evenodd;stroke-linejoin:round;stroke-miterlimit:2;"><rect id="Logo-Colored" serif:id="Logo Colored" x="0" y="0" width="1080" height="1080" style="fill:none;"/><g id="Logo-Colored1" serif:id="Logo Colored"><path id="text1-8" d="M246.625,499.786l-11.369,-0.498l-2.912,1.455l-0.138,3.158l1.186,-0.581l0.686,1.19l-1.524,1.094l0.433,4.554l-1.314,3.528l0.342,4.234l-0.578,3.561l-0.309,7.053l0.288,3.071l-0.688,3.661l0.019,9.388l1.332,0.901l-1.168,2.586l3.322,1.2l9.79,0.429l4.011,-2.461l0.07,-6.431l-0.882,-3.941l2.747,-2.517l9.369,0.411l12.348,-0.198l7.538,1.279l2.093,-2.018l8.75,2.493l3.099,-0.919l3.208,1.406l4.096,0.39l1.694,-2.563l-1.354,-2.801l1.191,-3.112l-1.134,-3.003l0.728,-2.183l0.208,-4.737l-3.277,-2.253l-14.737,-0.645l-4.98,0.521l-3.002,-1.292l-12.316,-0.539l-2.092,-0.408l-5.177,0.195l-1.95,1.18l-1.675,-0.284l-2.036,-1.671l-0.938,-0.252l-2.031,-4.202l1.163,-2.481l-0.117,-4.54l-2.013,-2.408Zm-12.544,9.471l1.762,0.71l-1.145,2.059l-1.254,-0.266l0.637,-2.503Zm7.347,-4.003l1.323,1.113l-1.022,1.642l1.08,1.841l-1.103,1.111l-2.265,-3.685l1.987,-2.022Zm-1.681,35.997l2.27,1.154l-0.678,1.025l-3.483,0.057l-0.777,-1.51l2.668,-0.726Zm60.588,-110.065l-1.178,0.96l-1.936,-1.59l-1.171,1.293l-6.483,-0.786l-0.728,-1.217l-1.549,-0.698l-2.921,0.533l-13.979,-6.516l-13.996,-4.316l-1.998,0.046l-2.046,0.913l-1.623,6.336l-2.304,5.685l0.726,2.649l4.144,1.94l9.248,2.19l3.92,-0.556l2.23,1.35l27.388,8.445l3.754,5.348l0.472,1.689l-2.888,9.364l-4.518,2.135l-2.628,3.159l1.076,1.876l-1.302,1.363l-1.626,-2.597l-3.966,-0.019l-0.479,-2.022l-3.957,-2.543l-23.562,-7.266l-1.362,-1.302l-3.509,-0.421l-1.085,-0.775l-4.972,-1.754l-4.075,1.059l-1.861,1.742l-1.648,9.636l1.464,-0.1l-0.025,1.867l-2.068,-0.086l-1.242,4.027l2.043,3.387l7.475,1.864l1.765,1.426l6.468,1.554l2.587,-0.525l1.511,0.465l1.72,-0.572l0.898,1.379l6.018,2.297l2.727,-0.261l14.188,5.478l10.164,1.369l4.215,-2.228l2.581,-2.292l3.766,-1.485l1.35,-2.23l2.891,-3.299l0.15,-3.702l2.194,-3.183l3.179,-3.871l1.118,-5.059l-0.936,-1.612l1.816,-5.173l-1.437,-6.067l0.691,-3.315l-4.333,-7.401l-1.55,-0.698l-2.392,-2.612l-2.052,-0.854l-4.552,-3.821Zm-39.134,-6.113l1.317,0.736l-0.312,2.441l-2.834,-1.536l1.829,-1.641Zm7.521,2.429l0.936,1.612l-2.138,-0.218l-0.262,-1.294l1.464,-0.1Zm-27.851,38.826l1.82,0.892l-1.976,1.044l0.156,-1.936Zm60.63,-29.27l1.82,0.893l1.059,2.642l-2.301,1.385l-0.728,-1.217l0.466,-1.51l-1.75,-0.76l1.434,-1.433Zm7.171,16.436l0.556,2.487l1.131,1.341l-2.239,-0.249l1.384,3.735l1.464,1.333l-2.91,6.931l-2.248,2.284l-0.386,-2.324l2.466,-4.422l-1.61,-0.497l-0.808,2.618l-1.519,0.635l-0.595,-1.287l1.667,-2.904l1.984,-0.711l0.683,-2.215l-2.239,-0.25l0.381,-2.308l1.365,-1.564l-0.169,-1.596l1.642,-1.037Zm-7.849,15.442l1.115,0.675l-0.163,1.604l-1.549,-0.699l0.597,-1.58Zm2.36,4.146l-0.272,1.24l-0.821,0.518l-0.541,-1.821l1.634,0.063Zm-10.711,8.275l-0.281,2.34l-1.812,-0.559l0.799,-1.518l1.294,-0.263Zm31.121,-131.43l-5.588,-3.398l-2.744,-0.457l-4.374,-1.433l-7.927,0.999l-3.899,1.815l-1.15,1.512l-2.49,0.859l-2.367,4.251l-3.437,2.637l-4.659,6.135l-0.182,1.021l-3.891,5.001l-0.583,4.058l-1.941,1.74l-6.435,9.513l-1.201,0.459l-2.362,3.491l0.742,2.665l2.788,2.649l1.837,0.48l7.008,5.249l1.633,0.596l2.531,1.712l2.169,-0.95l0.49,0.968l-1.176,0.986l3.24,0.665l0.426,1.814l6.764,2.413l8.193,7.07l2.855,1.422l14.225,9.623l2.1,0.657l2.244,1.009l2.839,-0.624l0.457,-2.744l4.782,-7.069l0.511,-2.071l2.441,-2.293l0.188,-1.781l-0.603,-1.553l-5.848,-3.956l-3.188,0.388l-2.816,-2.796l-3.293,-1.337l-1.882,-2.672l-2.451,-0.513l-1.276,-1.5l-0.534,-3.159l1.712,-2.531l2.788,-1.677l3.039,0.021l6.946,1.391l1.833,1.24l3.717,-0.793l4.395,2.719l6.545,0.101l3.044,-0.739l3.017,-5.211l2.828,-3.429l1.068,-2.331l-0.926,-1.263l1.062,-1.571l1.132,1.147l2.416,-2.818l-1.756,0.339l-0.929,-0.883l2.169,-0.95l-1.425,-1.091l-4.674,-0.236l-3.293,-1.337l-2.37,0.305l-1.689,-0.888l-3.298,-0.578l-2.503,-1.565l-2.107,0.482l-5.488,-0.914l-0.77,1.515l1.16,1.294l0.991,0.415l-0.04,1.753l-1.72,-0.654l-1.99,0.308l-1.16,-1.294l0.421,-1.75l-1.337,-1.032l-3.214,-0.138l-0.041,-2.573l0.94,-0.636l1.976,1.592l1.001,-1.104l0.045,-2.133l-0.319,-4.795l0.219,-2.015l-1.643,-3.401l-2.47,-2.18l-1.468,-3.663Zm-6.512,-0.716l1.537,1.676l-0.531,0.786l-1.602,-0.829l-1.673,1.157l-0.283,-1.463l1.06,-1.191l1.492,-0.136Zm4.363,2.952l0.75,1.525l-1.589,1.597l-1.168,-0.154l1.014,-3.003l0.993,0.035Zm-3.355,3.455l0.114,0.585l-1.356,1.628l-1.016,-0.942l2.258,-1.271Zm-26.747,5.314l-0.249,2.248l-1.147,1.132l-1.317,0.254l1.16,-3.031l1.553,-0.603Zm30.734,-2.744l-0.157,1.548l-1.025,0.197l0.868,1.35l-1.345,0.108l-0.842,-0.824l1.422,-2.855l1.079,0.476Zm3.006,4.959l0.664,1.086l-1.003,1.484l-1.397,-0.945l-0.228,-0.791l1.964,-0.834Zm-14.1,6.363l0.364,2.282l-0.053,3.653l-6.436,9.513l1.476,2.143l-0.333,1.81l-3.006,-0.634l-2.603,-4.051l-4.777,-2.341l-2.528,-2.092l-0.978,-2.315l3.883,-3.861l2.164,-4.515l2.174,-1.71l4.536,-0.875l0.968,-0.49l5.149,3.483Zm24.837,4.844l1.25,0.973l-1.058,0.811l-0.872,-0.59l0.68,-1.194Zm-58.118,11.443l0.169,0.878l-2.996,2.172l-1.016,-0.942l1.347,-0.488l0.596,-1.633l1.9,0.013Zm73.527,-8.27l-0.069,1.607l-1.114,0.518l-0.331,1.43l1.964,-0.834l-0.483,2.218l-1.404,0.195l0.21,3.45l-1.049,-0.329l-1.058,0.811l-3.142,-2.125l1.853,-1.799l0.396,-2.277l-0.786,-0.532l-0.564,1.399l-1.222,-0.826l0.831,-1.982l1.348,-0.488l0.447,-1.224l1.17,-0.226l1.101,1.381l1.902,-0.367Zm-13.232,7.714l-0.827,1.221l-1.052,0.052l0.48,-1.838l1.399,0.565Zm-45.345,15.503l-0.416,0.991l-2.515,0.334l-1.166,-0.534l0.827,-1.222l1.725,-0.105l1.545,0.536Zm34.62,5.992l1.273,1.879l-0.475,1.078l-1.602,-0.829l0.804,-2.128Zm0.441,3.86l0.02,2.046l-1.022,-0.182l-0.578,-1.027l1.58,-0.837Zm-4.741,5.316l0.84,1.204l-1.35,0.868l-0.901,-0.737l1.411,-1.335Zm25.849,-32.381l-1.399,-0.565l0.136,1.492l0.817,0.297l0.446,-1.224Zm44.015,-79.145l-1.899,-1.723l-0.65,-1.501l-16.4,-20.749l-1.998,-1.509l-1.972,-0.456l-1.571,1.242l-0.983,1.985l0.854,0.4l-0.521,1.889l-1.842,-0.29l-4.521,2.096l-1.653,1.307l0.318,1.763l2.187,3.106l0.323,1.088l1.699,2.149l0.649,1.502l1.572,1.309l6.142,7.771l2.22,0.259l1.834,1.64l0.061,0.758l4.378,5.538l2.721,1.744l-0.168,0.805l-2.642,1.416l-2.686,-2.039l-1.25,-0.222l-2.425,-1.709l-4.767,-0.933l-1.833,-1.64l-3.818,-0.071l-1.032,-0.796l-1.528,-0.404l-0.392,-0.496l-2.612,-0.756l-1.115,-0.73l-1.119,-0.055l-2.116,-1.148l-4.026,-0.847l-7.963,-3.107l-2.768,0.576l-5.869,4.639l-2.402,2.569l-3.729,1.739l-0.617,1.428l0.288,1.384l20.843,26.37l1.441,1.144l2.222,2.811l1.841,0.29l0.846,1.75l13.721,17.359l1.559,0.783l10.229,-7.28l1.082,-2.198l-1.316,-2.855l-1.32,-2.18l-4.65,-1.294l-2.678,-3.39l-1.103,-2.754l-1.494,-0.7l-2.613,-3.307l-2.083,-3.994l-4.635,-6.544l-1.507,-1.227l-0.911,-1.832l-1.697,0.402l-0.667,-1.354l1.031,-1.754l2.351,0.425l0.745,1.962l1.81,-0.088l4.642,2.644l2.416,0.508l3.331,1.665l5.015,0.737l5.268,2.417l1.655,1.244l1.48,0.173l4.384,1.638l6.704,1.685l1.18,0.814l6.312,1.189l2.611,-1.795l0.635,-1.576l5.951,-4.705l0.57,-1.658l-0.915,-1.158l-0.888,-0.103l-2.247,-1.314l-0.565,0.985l-1.897,0.828l-2.495,-1.118l1.882,-3.905l-3.467,-3.707l-0.22,-4.526l-1.503,-1.901l-0.715,-1.585l-5.945,-7.522l-0.585,-1.42Zm-20.226,-19.471l-0.517,1.215l-2.289,0.332l-0.058,-1.432l1.048,-1.903l1.816,1.788Zm-5.66,5.414l0.385,1.845l-1.707,-0.8l-0.828,-1.897l2.15,0.852Zm38.395,44.327l-1.597,0.188l-0.719,-0.909l-0.428,-2.751l2.744,3.472Zm-4.453,-1.046l-0.583,1.132l-3.138,-0.743l-0.523,-0.661l2.916,-0.559l1.328,0.831Zm-25.175,24.734l-1.265,2.477l-2.872,1.464l-0.961,1.163l-1.655,-1.244l1.709,-2.425l1.432,-0.058l0.387,-1.38l1.074,-0.849l2.151,0.852Zm68.757,-46.447l-0.558,-0.434l-3.127,-7.264l-3.122,-4.814l-0.075,-1.132l-4.598,-6.677l-0.601,-3.451l-2.05,-1.355l-4.914,-10.264l-3.166,-10.517l-0.79,-0.673l-0.397,-1.562l-1.803,-2.058l0.198,-0.562l-2.791,-4.855l-0.439,-1.893l-2.546,0.05l-1.057,1.207l-0.454,1.736l-7.889,3.777l-2.074,0.059l-4.372,2.093l-0.549,1.782l1.183,2.471l1.868,0.974l1.237,2.095l0.721,4.679l1.489,3.842l0.695,0.719l5.232,10.93l0.609,2.979l3.11,5.521l7.689,16.061l2.436,3.624l0.111,1.699l3.437,5.714l1.876,0.504l2.43,-1.514l3.516,-1.684l2.198,-1.753l3.422,-1.638l3.314,-0.885l2.26,-2.601l-1.659,-4.93Zm-35.676,-46.704l-1.12,2.054l-1.71,0.819l-0.592,-1.236l1.236,-0.591l0.404,-1.596l1.782,0.55Zm13.572,11.025l-1.206,1.629l-0.617,-2.509l-1.393,-1.202l1.376,-0.542l1.84,2.624Zm-3.491,13.937l-0.123,1.695l1.084,2.752l-2.943,-1.512l0.157,-0.892l-1.983,0.248l-0.451,-1.185l1.392,-1.485l2.867,0.379Zm17.527,30.511l-2.946,1.41l-1.972,-0.458l-1.689,2.328l-0.361,-3.682l6.046,-0.792l0.922,1.194Zm72.526,-57.248l-0.964,-2.376l0.067,-1.634l-5.778,-25.809l-1.146,-2.227l-1.579,-1.266l-1.954,0.438l-1.746,1.362l0.595,0.731l-1.289,1.476l-1.533,-1.06l-4.983,-0.073l-2.057,0.46l-0.477,1.727l0.623,3.747l-0.18,1.121l0.598,2.673l-0.065,1.635l0.849,1.861l2.163,9.666l1.888,1.197l0.941,2.273l-0.273,0.708l1.542,6.89l1.696,2.751l-0.502,0.653l-2.994,0.13l-1.537,-3.003l-1.029,-0.742l-1.444,-2.592l-3.891,-2.908l-0.941,-2.273l-3.408,-1.72l-0.585,-1.165l-1.201,-1.027l-0.138,-0.617l-2.026,-1.814l-0.688,-1.142l-0.983,-0.535l-1.409,-1.952l-3.261,-2.51l-5.828,-6.253l-2.743,-0.682l-7.301,1.634l-3.278,1.274l-4.114,-0.05l-1.176,1.019l-0.341,1.372l7.343,32.801l0.803,1.656l0.782,3.496l1.534,1.06l-0,1.943l4.834,21.593l1.065,1.381l12.374,-2.122l1.929,-1.512l0.051,-3.143l-0.244,-2.536l-3.628,-3.183l-0.944,-4.216l0.201,-2.961l-1.042,-1.278l-0.92,-4.113l-0.144,-4.503l-1.338,-7.906l-0.826,-1.759l-0.027,-2.046l-1.704,-0.374l-0.019,-1.509l1.69,-1.134l1.934,1.403l-0.181,2.092l1.67,0.706l3.036,4.395l1.956,1.505l2.279,2.945l4.199,2.84l3.699,4.463l0.951,1.838l1.258,0.798l3.24,3.378l5.31,4.426l0.711,1.245l5.171,3.809l3.131,-0.485l1.256,-1.145l7.403,-1.657l1.232,-1.248l-0.322,-1.439l-0.755,-0.479l-1.455,-2.158l-0.936,0.641l-2.069,-0.076l-1.763,-2.089l3.39,-2.703l-1.516,-4.843l1.765,-4.174l-0.53,-2.365l0.042,-1.737l-2.095,-9.357l0.099,-1.532Zm-9.779,-26.317l-0.993,0.87l-2.207,-0.693l0.57,-1.316l1.769,-1.259l0.861,2.398Zm-7.448,2.423l-0.454,1.83l-1.191,-1.461l0.077,-2.069l1.568,1.7Zm15.369,56.595l-1.521,-0.523l-0.253,-1.132l0.808,-2.664l0.966,4.319Zm-3.559,-2.875l-1.016,0.768l-2.505,-2.031l-0.184,-0.822l2.869,0.761l0.836,1.324Zm-33.411,11.367l-2.215,1.684l-3.222,0.072l-1.371,0.631l-0.951,-1.838l2.592,-1.444l1.315,0.569l0.947,-1.076l1.337,-0.299l1.568,1.701Zm124.513,-38.267l-2.701,-2.985l-6.212,-0.329l-3.496,-1.151l-1.209,0.529l-4.952,-0.219l-2.365,0.428l-5.618,-2.287l-3.085,1.424l-1.643,1.866l-0.86,9.868l1.164,2.428l7.279,0.211l2.716,1.611l0.046,1.908l-3.41,3.933l-5.399,2.492l-2.415,-0.21l-8.579,-8.363l0.292,-3.359l-1.638,-1.835l-0.219,-2.346l1.552,-3.249l0.175,-11.725l4.131,-7.361l6.491,-4.089l3.236,0.493l4.837,5.181l1.387,3.506l0.707,2.811l3.382,1.246l6.148,-1.368l1.843,0.689l3.779,0.329l4.035,-2.61l0.315,-2.405l-0.99,-1.99l0.146,-1.679l-1.569,-3.839l-2.241,-2.205l-2.738,-4.998l-4.18,-3.008l-4.163,-0.785l-2.966,-2.374l-16.375,-1.426l-3.561,2.017l-1.994,-0.175l-4.354,1.419l-6.696,5.234l-5.336,6.622l-1.886,3.432l-2.155,5.312l0.707,2.812l-1.123,0.748l-1.352,15.536l1.592,4.792l1.186,5.815l4.531,7.481l4.18,3.008l3.637,3.173l3.236,0.493l2.766,2.25l6.371,-0.291l1.474,1.292l5.144,0.448l4.897,-1.583l6.244,-3.687l2.451,-0.21l2.966,4.806l2.875,0.991l6.198,-0.729l0.096,-4.751l-0.689,-3.022l0.671,-1.634l0.302,-3.464l1.137,-2.122l-0.232,-8.27l0.658,-2.693l-1.059,-2.419l2.48,-5.389Zm-29.863,-28.725l-2.821,0.812l-0.292,-1.506l1.009,-0.652l2.104,1.346Zm-17.861,49.636l-2.925,0.803l-3.418,-3.259l3.724,0.959l1.091,-1.597l1.528,3.094Zm130.151,-29.21l-4.144,-2.947l-0.937,0.802l0.69,2.205l4.391,-0.06Zm32.904,43.288l0.419,-2.668l0.642,-10.773l-2.098,-4.211l-2.222,-5.492l-3.314,-1.631l-0.938,-1.982l-4.411,-4.188l-3.521,-1.264l-3.909,-2.935l-4.423,-1.169l-10.641,-6.014l-1.619,0.296l-0.646,1.571l-1.835,-1.037l-1.451,2.569l-1.221,-1.053l0.343,-2.106l1.587,-1.524l-0.478,-1.722l-2.405,-2.812l-1.476,0.255l-9.695,17.154l-0.163,4.144l-2.72,5.24l-2.748,2.078l-13.272,23.483l-1.599,1.759l-3.533,7.323l0.913,2.453l2.668,0.418l12.567,7.103l1.715,0.606l1.815,-3.21l0.144,-2.824l2.177,-3.853l5.109,-5.827l2.365,-5.683l2.165,-0.834l2.952,2.273l12.659,7.155l3.214,-0.119l4.061,1.811l3.409,-0.251l3.542,-0.056l6.768,-3.194l2.03,-1.879l2.086,-1.121l1.595,-2.608l3.393,-3.651Zm-8.396,-17.696l-1.471,1.105l-0.375,-1.906l-1.767,-0.515l0.335,-1.021l1.95,0.618l1.328,1.719Zm-0.617,18.653l-1.293,0.359l-1.26,-1.196l0.019,-1.32l2.534,2.157Zm1.28,2.66l-4.176,1.392l-3.075,2.015l-1.376,-0.778l0.471,-2.76l-1.468,-0.83l0.1,-1.032l-1.651,-0.934l0.151,-1.124l4.93,3.27l2.564,0.602l2.138,-1.212l1.392,1.391Zm-14.271,-30.214l-1.252,0.502l-1.296,-0.49l0.606,-1.715l1.244,0.582l0.698,1.121Zm-4.096,-1.105l-1.93,0.846l-0.618,-0.834l0.805,-0.997l-0.219,-2.182l2.002,0.527l-0.04,2.64Zm6.127,18.713l-1.767,2.269l-4.188,1.627l-1.555,-0.032l-3.083,0.315l-1.946,-2.552l-1.927,-1.089l-3.649,-0.61l-1.42,-1.771l5.332,-8.363l2.393,-2.521l1.057,-0.371l6.385,1.551l4.447,6.266l-0.079,5.281Zm-36.265,20.05l-2.313,0.023l1.846,-1.982l-1.456,-1.065l2.621,-1.424l0.825,-2.317l1.376,0.778l-2.899,5.987Zm-4.986,-6.812l-1.507,1.811l-1.603,-1.875l0.335,-1.021l2.775,1.085Zm1.967,12.368l-2.377,0.351l0.646,-1.572l-0.63,-0.598l-1.081,0.842l-1.719,-1.456l-3.609,-0.467l-2.629,-3.059l0.307,-1.399l5.046,2.851l3.095,-0.55l1.236,1.667l1.021,0.335l0.694,3.055Zm110.662,60.079l5.46,-7.883l1.734,-0.617l0.709,-1.246l-0.161,-2.017l1.305,-1.227l1.973,-1.132l0.023,-0.745l2.267,-3.434l0.684,-5.271l0.705,-1.097l0.387,-7.74l-0.347,-0.831l-0.088,-4.401l-1.128,-2.121l-1.726,-4.452l-2.928,-4.189l-5.535,-6.656l-3.226,-1.739l-3.465,-3.684l-3.105,-0.841l-2.193,-1.409l-14.501,-1.117l-1.999,-0.434l-2.325,0.45l-5.53,2.886l-1.459,1.371l-2.843,0.36l-0.854,1.092l-13.934,11.946l-0.728,1.841l-2.637,3.348l-0.103,0.966l-1.302,3.538l-0.065,2.085l-1.78,4.567l0.722,0.767l0.67,4.866l-0.56,1.25l0.755,6.956l2.359,3.278l-0.479,1.028l4.331,4.606l1.091,3.314l7.837,6.949l1.985,0.881l2.901,2.624l6.757,0.879l1.755,1.097l11.058,-0.852l3.133,-0.053l4.55,-2.543l3.517,-0.414l2.935,-3.339l3.398,-1.461Zm9.563,-37.052l-1.264,-0.113l0.434,-1.999l0.939,0.998l-0.109,1.114Zm0.638,-3.782l-1.729,0.469l-0.134,-2.911l0.744,0.023l1.119,2.419Zm-2.653,28.096l-2.51,1.637l-0.867,-0.921l2.24,-2.54l1.137,1.824Zm-12.103,-35.482l-1.95,0.388l-1.02,-0.777l-1.237,1.453l-1.287,0.631l-1.651,-2.064l0.637,-1.322l1.702,0.425l0.844,-0.794l0.505,0.538l1.061,-0.564l1.404,0.416l0.992,1.67Zm-4.906,50.463l-2.189,-1.558l0.281,-1.855l0.668,0.096l0.487,1.133l1.671,-0.992l0.243,1.797l-1.161,1.379Zm-2.002,-56.117l-0.87,-0.772l0.095,-0.668l-1.155,-1.228l1.229,-1.155l1.62,0.646l-0.714,1.395l0.333,1.277l-0.538,0.505Zm-3.911,56.905l-2.429,1.416l-1.227,-1.305l2.555,-0.667l1.593,-0.92l-0.492,1.476Zm-5.064,-60.759l-0.392,-1.801l-1.742,-1.544l3.95,0.046l-0.665,2.215l-1.151,1.084Zm-1.32,45.356l-1.788,-0.055l-4.821,1.64l-0.844,0.794l-4.31,-0.431l-4.287,-3.635l-0.912,0.569l-0.721,-0.768l1.295,-10.62l3.545,-3.767l2.15,-4.481l0.966,0.104l4.01,-4.349l-0.424,-0.759l2.664,-1.781l0.493,-1.476l2.198,-1.2l4.645,-0.752l0.537,-0.505l1.408,0.267l5.34,-1.55l3.164,1.364l2.959,3.147l0.758,2.037l-0.364,4.535l-3.731,7.414l-0.258,1.111l-13.672,13.147Zm-6.665,15.523l-2.812,1.777l-0.054,-3.132l1.047,-0.117l1.819,1.472Zm-7.932,-35.353l-3.214,0.274l-0.943,-0.849l2.601,-2.156l1.556,2.731Zm1.48,31.875l-3.056,-0.019l-3.032,-3.224l-4.96,-1.122l1.062,-3.023l-1.912,-3.264l-3.177,-0.918l2.574,-3.722l1.028,2.938l2.626,1.87l0.541,1.806l3.556,0.705l0.55,1.508l3.241,1.292l-0.093,2.979l1.052,2.194Zm-6.187,-24.267l-1.53,1.294l-0.88,-0.474l0.506,-1.922l1.904,1.102Zm-8.74,5.471l-1.066,0.712l-1.697,-0.574l-0.614,0.578l-1.457,-1.089l0.872,-1.687l3.962,2.06Zm44.797,64.08l0.385,-0.593l6.972,-3.733l4.531,-3.52l1.122,-0.171l6.262,-5.149l3.387,-0.892l1.176,-2.158l9.809,-5.769l10.21,-4.048l0.603,-0.844l1.523,-0.529l1.897,-1.971l0.577,0.15l4.6,-3.194l1.849,-0.599l-0.267,-2.532l-1.293,-0.951l-1.768,-0.305l-4.434,-7.538l-0.234,-2.063l-2.457,-4.178l-1.822,-0.395l-2.362,1.389l-0.812,1.944l-1.982,1.41l-4.6,1.116l-3.702,1.811l-0.658,0.753l-10.445,6.143l-2.917,0.86l-5.236,3.567l-15.35,9.027l-3.403,2.735l-1.683,0.257l-5.402,3.909l-0.342,1.913l1.715,2.292l1.976,3.361l1.934,2.041l1.923,3.27l1.164,3.226l2.783,2.031l4.771,-2.073Zm43.503,-39.518l-2.142,-0.94l-0.962,-1.635l1.181,-0.694l0.694,1.181l1.624,0.267l-0.395,1.821Zm-9.832,14.461l-1.726,-1.063l2.447,-0.828l1.08,-1.49l0.657,1.325l-2.458,2.056Zm-14.184,-2.293l-1.699,0.021l-2.65,1.314l1.256,-3.061l0.903,0.08l-0.416,-1.955l1.143,-0.55l1.597,1.261l-0.134,2.89Zm-28.91,20.057l-1.656,-2.816l0.289,-2.003l-2.463,-1.486l3.639,-0.672l1.303,5.957l-1.112,1.02Zm63.097,67.505l2.288,-1.157l1.634,-0.071l25.238,-7.905l2.124,-1.327l1.131,-1.679l-0.599,-1.911l-1.503,-1.627l-0.678,0.654l-1.579,-1.162l0.929,-1.615l-0.342,-4.972l-0.63,-2.012l-1.76,-0.332l-3.683,0.933l-1.132,-0.086l-2.614,0.818l-1.634,0.071l-1.785,1.001l-9.452,2.96l-1.036,1.981l-2.186,1.126l-0.73,-0.213l-6.737,2.11l-2.601,1.919l-0.692,-0.446l-0.378,-2.973l2.865,-1.781l0.653,-1.088l2.463,-1.654l2.574,-4.119l2.187,-1.127l1.431,-3.539l1.112,-0.68l0.923,-1.283l0.604,-0.19l1.639,-2.169l1.081,-0.78l0.452,-1.025l1.828,-1.567l2.229,-3.458l5.748,-6.327l0.451,-2.791l-2.236,-7.139l-1.542,-3.161l-0.292,-4.105l-1.113,-1.086l-1.396,-0.226l-32.076,10.046l-1.584,0.937l-3.418,1.071l-0.93,1.616l-1.935,0.165l-21.117,6.613l-1.287,1.176l3.144,12.155l1.667,1.797l3.136,-0.21l2.508,-0.454l2.87,-3.88l4.123,-1.291l2.966,-0.046l1.188,-1.145l4.022,-1.259l4.475,-0.519l7.768,-1.991l1.684,-0.969l2.037,-0.196l0.231,-1.729l1.502,-0.14l1.271,1.59l-1.237,2.043l-2.1,0l-0.564,1.723l-4.128,3.391l-1.338,2.075l-2.745,2.516l-2.48,4.42l-4.14,4.057l-1.753,1.101l-0.691,1.321l-3.096,3.509l-3.969,5.66l-1.182,0.811l-3.365,5.471l0.743,3.08l1.246,1.155l2.267,7.24l1.346,1.124l1.408,-0.44l0.414,-0.793l2.029,-1.629l-0.717,-0.88l-0.096,-2.067l1.935,-1.931l2.975,3.153l4.701,-1.914l4.306,1.412l2.313,-0.724l1.735,-0.102l9.15,-2.865l1.534,-0.044Zm25.412,-11.933l-0.949,-0.917l0.507,-2.257l1.359,0.458l1.402,1.658l-2.319,1.058Zm-3.034,-7.22l-1.861,-0.301l1.357,-1.308l2.068,-0.096l-1.564,1.705Zm-55.12,20.022l0.395,-1.559l1.106,-0.346l2.722,0.583l-4.223,1.322Zm2.569,-3.785l-0.849,-0.949l1.814,-2.666l0.805,-0.252l-0.52,2.923l-1.25,0.944Zm-14.107,-32.351l-1.862,-2.067l-0.341,-3.205l-0.743,-1.313l1.754,-1.101l1.654,2.463l-0.458,1.358l1.151,0.854l0.409,1.307l-1.564,1.704Zm69.378,102.648l11.371,-0.442l2.782,-1.69l-0.123,-3.159l-1.133,0.677l-0.782,-1.13l1.429,-1.215l-0.808,-4.503l1.019,-3.625l-0.691,-4.191l0.282,-3.596l-0.274,-7.055l-0.54,-3.037l0.383,-3.705l-0.786,-9.355l-1.401,-0.789l0.951,-2.673l-3.411,-0.922l-9.792,0.381l-3.793,2.784l0.461,6.415l1.204,3.854l-2.53,2.735l-9.371,0.364l-12.29,1.216l-7.618,-0.652l-1.918,2.183l-8.926,-1.761l-3.013,1.171l-3.313,-1.136l-4.114,-0.05l-1.477,2.693l1.58,2.68l-0.93,3.2l1.378,2.899l-0.545,2.236l0.184,4.738l3.451,1.974l14.74,-0.573l4.92,-0.929l3.099,1.039l12.319,-0.479l2.118,0.234l5.142,-0.622l1.847,-1.337l1.692,0.146l2.167,1.497l0.956,0.174l2.371,4.021l-0.954,2.568l0.492,4.515l2.195,2.232Zm11.72,-10.474l-1.815,-0.562l0.971,-2.146l1.272,0.161l-0.428,2.547Zm-6.992,4.596l-1.41,-1l0.882,-1.721l-1.228,-1.745l1.008,-1.199l2.561,3.485l-1.813,2.18Zm-1.296,-36.013l-2.357,-0.963l0.591,-1.077l3.466,-0.346l0.9,1.441l-2.6,0.945Z" style="fill:#6e9320;fill-rule:nonzero;"/><path id="text4-7" d="M271.104,689.803l46.695,-27.007l15.09,26.093l-4.953,2.865l-11.259,-19.467l-15.649,9.051l9.453,16.343l-4.891,2.828l-9.452,-16.343l-21.202,12.263l-3.832,-6.626Zm22.025,37.074l54.856,-18.928l4.941,5.75l-27.184,51.133l-5.392,-6.275l7.51,-14.19l-14.894,-17.333l-15.205,5.233l-4.632,-5.39Zm25.599,-1.862l11.995,13.96l11.651,-22.12l-23.646,8.16Zm20.01,51.163l33.408,-42.352l12.82,10.113c4.75,3.747 7.189,7.404 7.316,10.97c0.142,3.547 -0.871,6.695 -3.038,9.442c-1.264,1.602 -2.837,2.93 -4.72,3.982c-1.864,1.068 -3.868,1.746 -6.014,2.034c-2.146,0.288 -4.571,0.046 -7.274,-0.724l-1.507,30.981l-7.383,-5.823l2.083,-27.417l-5.608,-4.424l-14.131,17.913l-5.952,-4.695Zm23.627,-17.711l1.946,1.535c4.445,3.506 8.17,4.944 11.175,4.312c3.024,-0.617 5.409,-2.031 7.154,-4.244c1.038,-1.317 1.646,-2.694 1.822,-4.134c0.21,-1.443 -0.087,-2.931 -0.89,-4.462c-0.785,-1.516 -2.532,-3.343 -5.241,-5.48l-3.777,-2.98l-12.189,15.453Zm21.788,51.559l23.466,-48.57l9.55,4.614l-4.7,44.077l32.004,-30.885l8.533,4.122l-23.467,48.57l-6.432,-3.107l19.09,-39.513l-30.91,29.794l-6.662,-3.218l4.573,-42.641l-19.138,39.611l-5.907,-2.854Zm99.86,36.12l6.968,-53.49l14.565,1.898c5.18,0.675 8.825,1.664 10.934,2.968c2.133,1.307 3.665,3.087 4.597,5.34c0.932,2.253 1.193,4.946 0.785,8.079c-0.477,3.662 -1.701,6.761 -3.674,9.298c-1.948,2.539 -4.79,4.325 -8.526,5.358c-3.737,1.032 -7.738,1.271 -12.002,0.715l-3.362,-0.438l-2.768,21.252l-7.517,-0.98Zm11.034,-26.018l3.072,0.4c5.036,0.656 8.799,-0.018 11.29,-2.021c2.491,-2.003 3.956,-4.692 4.395,-8.065c0.239,-1.831 0.09,-3.419 -0.445,-4.763c-0.532,-1.368 -1.519,-2.538 -2.961,-3.51c-1.438,-0.995 -4.097,-1.746 -7.977,-2.252l-4.662,-0.607l-2.712,20.818Zm39.343,30.77l-2.511,-53.883l16.31,-0.761c6.044,-0.281 10.282,0.883 12.714,3.494c2.432,2.587 3.729,5.628 3.892,9.123c0.095,2.039 -0.224,4.072 -0.956,6.101c-0.708,2.028 -1.779,3.853 -3.211,5.477c-1.432,1.623 -3.422,3.03 -5.97,4.219l19.162,24.392l-9.393,0.438l-16.39,-22.077l-7.136,0.333l1.062,22.791l-7.573,0.353Zm6.244,-28.86l2.476,-0.115c5.655,-0.264 9.411,-1.618 11.267,-4.065c1.881,-2.447 2.756,-5.078 2.624,-7.894c-0.077,-1.674 -0.521,-3.113 -1.332,-4.316c-0.787,-1.228 -1.986,-2.157 -3.596,-2.788c-1.586,-0.631 -4.103,-0.866 -7.549,-0.706l-4.806,0.224l0.916,19.66Zm71.862,20.212c-4.94,1.277 -9.531,1.284 -13.773,0.022c-4.217,-1.269 -7.885,-3.76 -11.003,-7.471c-3.1,-3.742 -5.343,-8.294 -6.729,-13.658c-1.337,-5.176 -1.601,-10.127 -0.789,-14.854c0.828,-4.756 2.815,-8.771 5.96,-12.043c3.145,-3.272 7.199,-5.549 12.163,-6.832c4.964,-1.283 9.614,-1.255 13.95,0.084c4.336,1.339 8.007,3.891 11.013,7.657c3.024,3.736 5.204,8.192 6.542,13.367c1.331,5.153 1.591,10.092 0.78,14.819c-0.794,4.698 -2.745,8.703 -5.854,12.016c-3.092,3.283 -7.178,5.582 -12.26,6.895l-0,-0.002Zm-1.432,-5.54c5.27,-1.362 8.832,-4.378 10.687,-9.048c1.878,-4.677 1.942,-10.403 0.191,-17.178c-1.745,-6.752 -4.577,-11.691 -8.497,-14.819c-3.903,-3.158 -8.466,-4.062 -13.689,-2.712c-5.222,1.35 -8.787,4.354 -10.695,9.013c-1.891,4.63 -1.964,10.32 -0.219,17.072c1.751,6.775 4.569,11.756 8.454,14.943c3.909,3.181 8.499,4.091 13.768,2.729Zm44.203,-9.751l-24.796,-47.905l15.926,-8.243c6.15,-3.183 11.274,-4.7 15.373,-4.551c4.088,0.127 7.916,1.443 11.483,3.947c3.577,2.471 6.611,6.113 9.102,10.925c2.356,4.553 3.687,9.159 3.991,13.817c0.326,4.647 -0.602,8.985 -2.785,13.014c-2.182,4.03 -6.273,7.598 -12.272,10.703l-16.022,8.293Zm4.167,-8.6l8.707,-4.507c4.532,-2.346 7.551,-4.811 9.058,-7.397c1.517,-2.619 2.108,-5.811 1.773,-9.577c-0.335,-3.767 -1.491,-7.56 -3.468,-11.379c-1.742,-3.366 -3.879,-6.146 -6.409,-8.338c-2.541,-2.214 -5.472,-3.516 -8.792,-3.904c-3.331,-0.41 -8.266,1.077 -14.804,4.462l-5.6,2.898l19.535,37.742Zm17.905,-65.178l5.915,-4.858l21.607,26.306c3.763,4.582 7.2,7.025 10.312,7.33c3.112,0.305 6.199,-0.799 9.259,-3.313c1.934,-1.588 3.298,-3.259 4.091,-5.011c0.778,-1.771 0.916,-3.708 0.415,-5.811c-0.502,-2.104 -2.202,-4.921 -5.101,-8.451l-21.769,-26.503l5.182,-4.256l21.699,26.418c3.717,4.525 5.837,8.255 6.361,11.189c0.527,2.901 0.253,5.783 -0.822,8.647c-1.072,2.829 -3.288,5.625 -6.649,8.385c-3.587,2.946 -6.989,4.718 -10.207,5.318c-3.218,0.599 -6.261,0.3 -9.131,-0.896c-2.869,-1.196 -6.07,-3.944 -9.601,-8.244l-21.561,-26.25Zm103.635,-32.344c-0.506,2.437 -1.093,4.51 -1.762,6.221c-0.671,1.677 -1.502,3.318 -2.493,4.924c-0.971,1.621 -2.145,3.281 -3.523,4.979c-5.726,7.057 -12.005,10.535 -18.839,10.435c-6.819,-0.119 -13.379,-2.735 -19.681,-7.848c-6.435,-5.22 -10.331,-11.197 -11.688,-17.931c-1.377,-6.749 0.782,-13.633 6.477,-20.653c3.031,-3.736 7.204,-7.625 12.518,-11.668l5.576,4.524c-4.883,3.048 -8.106,5.266 -9.672,6.656c-1.55,1.37 -2.907,2.773 -4.07,4.207c-4.072,5.019 -5.319,10.046 -3.741,15.081c1.575,5.001 4.834,9.507 9.777,13.518c5.151,4.18 10.37,6.27 15.656,6.273c5.283,-0.032 9.853,-2.425 13.711,-7.181c1.072,-1.321 2.023,-2.724 2.852,-4.209c0.827,-1.52 1.542,-3.115 2.145,-4.784c0.585,-1.685 1.139,-3.911 1.663,-6.677l5.094,4.133Zm12.898,-15.751l-47.503,-25.558l14.282,-26.544l5.039,2.711l-10.655,19.804l15.245,8.203l8.929,-16.594l4.975,2.676l-8.929,16.594l17.204,9.257l11.398,-21.184l5.039,2.711l-15.024,27.924Z" style="fill:#4d4d4d;fill-rule:nonzero;"/><path id="path42-7" d="M827.024,602.182c1.213,-1.916 2.071,-3.891 2.53,-5.824c1.05,-4.418 0.369,-9.379 -1.814,-13.225c-1.058,-1.863 -2.672,-3.604 -4.296,-4.633c-1.569,-0.995 -2.936,-1.543 -4.833,-1.939c-4.025,-0.84 -7.799,-0.056 -10.482,2.176c-0.696,0.579 -1.975,2.086 -2.449,2.92c-2.613,4.603 -3.603,16.494 1.69,23.045l0.304,0.405l0.291,-0.078c0.159,-0.042 0.79,-0.139 1.402,-0.215c3.101,-0.387 6.147,0.577 8.567,2.709c0.713,0.628 0.531,0.617 2.009,0.131c2.108,-0.692 4.011,-1.921 5.609,-3.622c0.534,-0.569 1.154,-1.347 1.472,-1.85Z" style="fill:#8e0000;fill-rule:nonzero;"/><path id="path43-5" d="M819.396,633.591c1.777,-2.819 2.864,-5.995 3.067,-8.955c0.205,-2.998 -0.34,-5.74 -1.675,-8.424c-1.824,-3.669 -4.742,-6.48 -7.899,-7.61c-2.948,-1.055 -6.498,-0.76 -8.841,0.941c-9.926,7.209 -12.949,14.05 -12.37,21.258c0.15,1.162 0.396,1.999 0.904,3.076c0.982,2.079 2.975,4.356 4.831,5.519c3.491,2.188 7.286,2.813 11.505,1.896c3.037,-0.66 5.764,-2.237 8.104,-4.688c0.489,-0.511 2.031,-2.469 2.374,-3.014l0,0.001Z" style="fill:#8e0000;fill-rule:nonzero;"/><path id="path60" d="M491.715,569.67c-13.886,1.8 -53.701,11.789 -57.814,67.404c-5.847,79.049 98.569,130.594 137.805,40.894c-0.445,-22.15 -4.912,-47.288 -15.898,-67.482c-9.249,-17.001 -32.264,-34.546 -64.093,-40.816Z" style="fill:#6e9320;fill-rule:nonzero;"/><path id="path63" d="M442.958,406.294c-2.491,-0.024 -4.632,0.008 -5.269,0.106c-1.148,0.133 -2.405,0.428 -3.471,0.662c-0.191,0.58 -0.273,1.65 -0.353,4.163c-0.231,7.225 0.116,11.461 1.467,17.963c1.239,5.986 1.947,8.145 4.079,12.551c9.828,20.305 33.133,30.209 66.938,28.445c2.358,-0.123 5.952,-0.412 7.985,-0.642l3.696,-0.419l0.99,1.702c5.4,9.287 10.15,18.033 14.006,25.695c0.488,-2.934 1.058,-5.882 1.739,-8.834c-0.674,-1.197 -1.429,-2.495 -1.975,-3.523c-1.325,-2.495 -3.275,-6.508 -4.332,-8.917c-1.8,-4.101 -2.038,-4.861 -3.756,-11.943c-2.051,-8.454 -2.978,-11.452 -5.036,-16.284c-5.019,-11.789 -11.958,-19.77 -23.494,-27.024c-12.45,-7.828 -27.828,-12.345 -45.867,-13.471c-1.997,-0.125 -4.843,-0.205 -7.347,-0.23Z" style="fill:#6e9320;fill-rule:nonzero;"/><path id="path10" d="M468.098,402.999c-5.223,-0.092 -10.747,0.135 -16.551,0.687c-4.43,0.421 -11.359,1.474 -14.842,2.192l0,-0c-0.886,0.186 -1.446,0.333 -1.788,0.455c0.462,-0.033 0.927,-0.066 1.404,-0.097c0.003,-0 0.008,-0 0.012,-0c0,-0 0,-0 0.001,-0c0.728,-0.048 1.479,-0.093 2.277,-0.132l-0.004,0.007c0.946,-0.098 2.339,-0.193 3.859,-0.25c25.741,-0.971 48.097,5.343 63.39,17.904c9.763,8.018 16.008,18.593 20.423,34.582c0.725,2.628 1.36,4.805 1.411,4.838c0.163,0.107 0.389,-8.467 0.291,-11.056c-0.475,-12.438 -3.898,-22.388 -10.456,-30.394c-9.785,-11.945 -26.79,-18.335 -49.426,-18.734l-0.001,-0.002Z" style="fill:#6e9320;fill-rule:nonzero;"/><path id="path8" d="M557.142,515.383c78.537,-1.06 135.71,122.289 20.777,153.48c-0.919,-24.874 -6.755,-46.923 -15.445,-62.06c-11.85,-20.643 -35.497,-34.606 -65.229,-42.404c2.02,-11.163 10.298,-39.256 43.815,-47.049c5.427,-1.262 10.803,-1.896 16.082,-1.967Zm-33.069,19.255c0.635,-0.244 1.046,-0.364 1.046,-0.364c-0.36,0.036 -0.715,0.161 -1.046,0.364Zm56.416,4.115c0.868,1.089 1.737,3.305 -2.057,6.021c-5.844,4.184 -29.873,9.189 -41.698,5.413c-16.636,-5.311 -15.686,-13.688 -12.661,-15.549c-3.3,1.271 -12.64,5.906 -1.575,14.546c13.193,10.301 42.831,6.325 53.132,-0.181c7.847,-4.955 6.125,-8.731 4.859,-10.25Zm0,0c-0.373,-0.469 -0.747,-0.729 -0.747,-0.729c-0,0 0.351,0.254 0.747,0.729Z" style="fill:#6e9320;fill-rule:nonzero;"/><path id="path64" d="M256.985,603.105c-1.213,-1.917 -2.071,-3.891 -2.53,-5.825c-1.05,-4.417 -0.369,-9.378 1.814,-13.224c1.058,-1.864 2.672,-3.604 4.296,-4.634c1.569,-0.994 2.936,-1.543 4.833,-1.938c4.025,-0.841 7.799,-0.057 10.482,2.175c0.696,0.58 1.975,2.086 2.449,2.921c2.613,4.603 3.603,16.494 -1.69,23.045l-0.304,0.404l-0.29,-0.077c-0.16,-0.042 -0.791,-0.14 -1.402,-0.216c-3.101,-0.386 -6.147,0.577 -8.568,2.71c-0.712,0.628 -0.53,0.617 -2.009,0.131c-2.108,-0.693 -4.01,-1.921 -5.609,-3.623c-0.534,-0.568 -1.154,-1.347 -1.472,-1.849Z" style="fill:#8e0000;fill-rule:nonzero;"/><path id="path65" d="M264.613,634.513c-1.776,-2.818 -2.864,-5.994 -3.066,-8.954c-0.206,-2.999 0.339,-5.741 1.674,-8.425c1.824,-3.668 4.743,-6.48 7.899,-7.609c2.949,-1.056 6.498,-0.761 8.841,0.941c9.926,7.208 12.949,14.049 12.37,21.258c-0.15,1.161 -0.395,1.998 -0.904,3.075c-0.982,2.08 -2.975,4.357 -4.831,5.52c-3.491,2.187 -7.285,2.812 -11.505,1.896c-3.036,-0.66 -5.763,-2.238 -8.104,-4.688c-0.489,-0.512 -2.031,-2.469 -2.374,-3.014l-0,0Z" style="fill:#8e0000;fill-rule:nonzero;"/><path id="path9" d="M541.752,485.299c7.154,-20.304 21.489,-42.218 36.668,-54.143c9.082,-7.135 25.814,-14.954 32.239,-17.159c3.058,-1.05 4.157,-1.374 3.713,-2.943c-2.413,-8.521 -4.647,-18.949 -4.164,-19.432c0.866,-0.866 60.791,22.35 60.826,23.564c0.033,1.168 -41.989,48.989 -43.188,49.147c-0.421,0.056 -1.84,-4.601 -3.152,-10.349c-1.818,-7.958 -2.909,-10.449 -4.577,-10.449c-5.371,-0 -19.32,8.686 -28.163,17.539c-10.507,10.517 -15.546,19.16 -20.989,34.055c-5.006,12.917 -4.824,27.747 -5.949,41.504c-1.789,4.364 -3.867,6.815 -16.952,7.2c-2.27,0.067 -10.295,-1.007 -12.845,-4.772c-1.567,-18.268 0.991,-36.153 6.533,-53.762Z" style="fill:#8e0000;fill-rule:nonzero;"/></g></svg>