<svg width="24" height="23" viewBox="0 0 24 23" fill="none" xmlns="http://www.w3.org/2000/svg">
<path d="M18.25 0.25C14.3 0.25 11.06 3.32125 10.7775 7.2C9.40324 5.94618 7.61029 5.25075 5.75 5.25H0.75V10.25C0.75 14.3862 4.115 17.75 8.25 17.75H10.75V22.75H13.25V12.75H15.75C19.885 12.75 23.25 9.38625 23.25 5.25V0.25H18.25ZM8.25 15.25C5.4925 15.25 3.25 13.0075 3.25 10.25V7.75H5.75C8.5075 7.75 10.75 9.9925 10.75 12.75V13.4825L7.88375 10.6162L6.11625 12.3838L8.9825 15.25H8.25ZM20.75 5.25C20.75 8.0075 18.5075 10.25 15.75 10.25H15.0175L17.8838 7.38375L16.1162 5.61625L13.25 8.4825V7.75C13.25 4.9925 15.4925 2.75 18.25 2.75H20.75V5.25Z" fill="#DDED21"/>
</svg>
