<svg width="40" height="40" viewBox="0 0 40 40" fill="none" xmlns="http://www.w3.org/2000/svg">
<path d="M17.7601 0L15.5735 1.13046L17.2401 4.41669L13.9068 2.77358L12.7602 4.92935L17.2401 7.13769H1.66691C1.61472 7.13527 1.56244 7.13527 1.51025 7.13769C1.45861 7.13532 1.40689 7.13532 1.35525 7.13769C0.969135 7.21009 0.621396 7.41469 0.373458 7.71535C0.12552 8.01601 -0.00666294 8.39338 0.000258667 8.78081V15.3533C0.000258667 15.7891 0.175852 16.207 0.488411 16.5151C0.800969 16.8233 1.22489 16.9964 1.66691 16.9964V38.3569C1.66691 38.7927 1.84251 39.2106 2.15507 39.5187C2.46763 39.8269 2.89155 40 3.33357 40H36.6667C37.1087 40 37.5326 39.8269 37.8452 39.5187C38.1577 39.2106 38.3333 38.7927 38.3333 38.3569V16.9964C38.7754 16.9964 39.1993 16.8233 39.5118 16.5151C39.8244 16.207 40 15.7891 40 15.3533V8.78081C40 8.34503 39.8244 7.92709 39.5118 7.61895C39.1993 7.31081 38.7754 7.13769 38.3333 7.13769H22.7601L27.2401 4.92935L26.0934 2.77358L22.7601 4.41669L24.4268 1.13046L22.2401 0L20.0001 4.41669L17.7601 0ZM3.33357 10.4239H18.3335V13.7102H3.64524C3.54322 13.6835 3.43886 13.6664 3.33357 13.6592V10.4239ZM21.6668 10.4239H36.6667V13.7102H21.6668V10.4239ZM5.00023 16.9964H18.3335V36.7138H5.00023V16.9964ZM21.6668 16.9964H35V36.7138H21.6668V16.9964Z" fill="#DDED21"/>
</svg>
