<svg width="40" height="40" viewBox="0 0 40 40" fill="none" xmlns="http://www.w3.org/2000/svg">
<path d="M11.0572 0C10.9559 0 10.8462 -1.78814e-07 10.7449 0.0116889C7.88352 0.105201 4.37223 1.26242 0 3.95091V32.4021C5.13188 29.0357 9.00612 28.0655 12.1713 28.533C13.3277 28.6967 14.3912 29.059 15.3703 29.5383L11.5636 20.3273C10.8377 20.7364 10.0528 20.9702 9.22558 20.9702C5.83161 20.9702 3.06394 17.1362 3.06394 12.4372C3.06394 7.73817 5.83161 3.90415 9.22558 3.90415C12.6187 3.90415 15.3872 7.73817 15.3872 12.4372C15.3872 15.2425 14.3997 17.7323 12.8804 19.2987L17.7168 30.9877C18.2401 31.3618 18.7381 31.7709 19.2277 32.18V3.77557C17.2695 1.7066 14.9905 0.268849 11.9688 0.0350676C11.6733 0.0116894 11.3695 0 11.0572 0ZM28.9513 0C28.639 0 28.3267 0.0116894 28.0312 0.0350676C25.0095 0.268849 22.739 1.7066 20.7723 3.77557V32.18C22.7896 30.4734 25.0011 28.9421 27.8287 28.533C30.9939 28.0655 34.8766 29.0357 40 32.4021V3.95091C35.6362 1.26242 32.1249 0.105201 29.2636 0.0116889C29.1538 0.0116889 29.0525 0 28.9513 0ZM9.22558 6.00818C6.65288 6.00818 4.58325 8.87201 4.58325 12.4372C4.58325 16.0023 6.65288 18.8662 9.22558 18.8662C11.8 18.8662 13.8679 16.0023 13.8679 12.4372C13.8679 8.87201 11.8 6.00818 9.22558 6.00818ZM9.41971 7.63296H9.65605C7.62186 9.76037 6.72041 12.5541 6.83942 15.8387C4.6398 11.3033 6.94661 7.72648 9.41971 7.63296ZM10.5254 30.602C7.82444 30.6371 4.46508 31.7475 0 34.8101V39.7779C5.13188 36.4115 9.00612 35.4413 12.1713 35.9088C13.7413 36.1426 15.1171 36.7154 16.3748 37.4635C15.9781 38.1765 15.5898 39.0181 15.2015 40H19.7004L16.6617 32.671C15.2606 31.7008 13.7666 30.9643 12.011 30.7072C11.5383 30.6371 11.0403 30.602 10.5254 30.602ZM29.1707 30.602C28.7656 30.6137 28.3773 30.6487 27.9975 30.7072C25.1277 31.128 22.9669 32.8112 20.7723 34.7282V34.7633C20.2574 34.5412 19.7341 34.4944 19.2277 34.623L21.4476 40H25.0939C24.5875 39.0415 24.0979 38.1999 23.5999 37.4752C24.866 36.7154 26.2503 36.1426 27.8287 35.9088C30.9939 35.4413 34.8766 36.4115 40 39.7779V34.8101C35.518 31.7358 32.1418 30.6137 29.4324 30.602H29.1707Z" fill="#DDED21"/>
</svg>
